<svg width="22" height="22" viewBox="0 0 22 22" fill="none" xmlns="http://www.w3.org/2000/svg">
<path d="M11 11C11.7563 11 12.4039 10.7844 12.9429 10.3532C13.481 9.92273 13.75 9.405 13.75 8.8C13.75 8.195 13.481 7.6769 12.9429 7.2457C12.4039 6.81523 11.7563 6.6 11 6.6C10.2437 6.6 9.59658 6.81523 9.0585 7.2457C8.5195 7.6769 8.25 8.195 8.25 8.8C8.25 9.405 8.5195 9.92273 9.0585 10.3532C9.59658 10.7844 10.2437 11 11 11ZM11 22C7.31042 19.4883 4.55492 17.1552 2.7335 15.0007C0.911167 12.8469 0 10.8533 0 9.02C0 6.27 1.10596 4.07917 3.31788 2.4475C5.52888 0.815833 8.08958 0 11 0C13.9104 0 16.4711 0.815833 18.6821 2.4475C20.894 4.07917 22 6.27 22 9.02C22 10.8533 21.0893 12.8469 19.2679 15.0007C17.4455 17.1552 14.6896 19.4883 11 22Z" fill="#D4AF37"/>
</svg>
