<svg width="32" height="32" viewBox="0 0 32 32" fill="none" xmlns="http://www.w3.org/2000/svg">
<path d="M6.249 1.20399C5.262 0.635991 4 1.33999 4 2.50099L4.01 23.301C4.01 24.017 4.39 24.676 5.008 25.036L5.013 25.038L14.893 30.698L14.899 30.702C15.589 31.092 16.436 31.098 17.129 30.697H17.131L26.997 25.038L27.002 25.035C27.3058 24.8589 27.558 24.606 27.7331 24.3016C27.9083 23.9972 28.0003 23.6522 28 23.301V2.49999C28 1.33999 26.738 0.634991 25.751 1.20299L16 6.83599L6.25 1.20499L6.249 1.20399ZM6.01 23.3L6 3.36999L16 9.14599L16.01 28.996C15.9654 28.995 15.9218 28.983 15.883 28.961L15.881 28.96L6.011 23.306L6.01 23.3Z" fill="#D4AF37"/>
</svg>
