<svg width="24" height="25" viewBox="0 0 24 25" fill="none" xmlns="http://www.w3.org/2000/svg">
<g clip-path="url(#clip0_77_2947)">
<path d="M12 12.2313L3.048 8.65535L3.6 21.8313H1.2L1.776 8.13935L0 7.43135L12 2.63135L24 7.43135L12 12.2313ZM12 6.23135C11.34 6.23135 10.8 6.49535 10.8 6.83135C10.8 7.16735 11.34 7.43135 12 7.43135C12.66 7.43135 13.2 7.16735 13.2 6.83135C13.2 6.49535 12.66 6.23135 12 6.23135ZM12 13.4313L18.684 10.7553C19.536 11.8833 20.124 13.2393 20.316 14.7153C19.956 14.6673 19.584 14.6313 19.2 14.6313C16.14 14.6313 13.464 16.2753 12 18.7233C11.2569 17.4763 10.2027 16.4435 8.94057 15.7262C7.67846 15.0089 6.25171 14.6316 4.8 14.6313C4.416 14.6313 4.044 14.6673 3.684 14.7153C3.876 13.2393 4.464 11.8833 5.316 10.7553L12 13.4313Z" fill="#414141"/>
</g>
<defs>
<clipPath id="clip0_77_2947">
<rect width="24" height="24" fill="white" transform="translate(0 0.231445)"/>
</clipPath>
</defs>
</svg>
