<svg width="30" height="31" viewBox="0 0 30 31" fill="none" xmlns="http://www.w3.org/2000/svg">
<path d="M14.8125 3.04395C8.18538 3.04395 2.8125 8.41683 2.8125 15.0439C2.8125 21.6607 8.19635 27.0439 14.8125 27.0439C21.439 27.0439 26.8125 21.6705 26.8125 15.0439C26.8125 8.42721 21.4292 3.04395 14.8125 3.04395ZM21.0433 16.8901H14.1202C14.059 16.8901 14.0003 16.8658 13.957 16.8225C13.9137 16.7792 13.8894 16.7205 13.8894 16.6593V6.96702C13.8894 6.90582 13.9137 6.84712 13.957 6.80384C14.0003 6.76057 14.059 6.73625 14.1202 6.73625H15.5048C15.566 6.73625 15.6247 6.76057 15.668 6.80384C15.7113 6.84712 15.7356 6.90582 15.7356 6.96702V15.0439H21.0433C21.1045 15.0439 21.1632 15.0683 21.2064 15.1115C21.2497 15.1548 21.274 15.2135 21.274 15.2747V16.6593C21.274 16.7205 21.2497 16.7792 21.2064 16.8225C21.1632 16.8658 21.1045 16.8901 21.0433 16.8901Z" fill="#414141"/>
</svg>
