<svg width="24" height="24" viewBox="0 0 24 24" fill="none" xmlns="http://www.w3.org/2000/svg">
<path d="M20.625 18.6328C21.1406 18.8906 21.6055 19.207 22.0195 19.582C22.4336 19.957 22.7852 20.375 23.0742 20.8359C23.3633 21.2969 23.5898 21.7969 23.7539 22.3359C23.918 22.875 24 23.4297 24 24H22.5C22.5 23.3828 22.3828 22.8008 22.1484 22.2539C21.9141 21.707 21.5938 21.2305 21.1875 20.8242C20.7812 20.418 20.3008 20.0938 19.7461 19.8516C19.1914 19.6094 18.6094 19.4922 18 19.5C17.375 19.5 16.793 19.6172 16.2539 19.8516C15.7148 20.0859 15.2383 20.4062 14.8242 20.8125C14.4102 21.2188 14.0859 21.6992 13.8516 22.2539C13.6172 22.8086 13.5 23.3906 13.5 24H12C12 23.4297 12.0781 22.875 12.2344 22.3359C12.3906 21.7969 12.6172 21.2969 12.9141 20.8359C13.2109 20.375 13.5664 19.957 13.9805 19.582C14.3945 19.207 14.8594 18.8906 15.375 18.6328C14.7891 18.2109 14.332 17.6836 14.0039 17.0508C13.6758 16.418 13.5078 15.7344 13.5 15C13.5 14.3828 13.6172 13.8008 13.8516 13.2539C14.0859 12.707 14.4062 12.2305 14.8125 11.8242C15.2188 11.418 15.6953 11.0938 16.2422 10.8516C16.7891 10.6094 17.375 10.4922 18 10.5C18.6172 10.5 19.1992 10.6172 19.7461 10.8516C20.293 11.0859 20.7695 11.4062 21.1758 11.8125C21.582 12.2188 21.9062 12.6992 22.1484 13.2539C22.3906 13.8086 22.5078 14.3906 22.5 15C22.5 15.7344 22.3359 16.418 22.0078 17.0508C21.6797 17.6836 21.2188 18.2109 20.625 18.6328ZM18 18C18.4141 18 18.8008 17.9219 19.1602 17.7656C19.5195 17.6094 19.8398 17.3945 20.1211 17.1211C20.4023 16.8477 20.6172 16.5312 20.7656 16.1719C20.9141 15.8125 20.9922 15.4219 21 15C21 14.5859 20.9219 14.1992 20.7656 13.8398C20.6094 13.4805 20.3945 13.1602 20.1211 12.8789C19.8477 12.5977 19.5312 12.3828 19.1719 12.2344C18.8125 12.0859 18.4219 12.0078 18 12C17.5859 12 17.1992 12.0781 16.8398 12.2344C16.4805 12.3906 16.1602 12.6055 15.8789 12.8789C15.5977 13.1523 15.3828 13.4688 15.2344 13.8281C15.0859 14.1875 15.0078 14.5781 15 15C15 15.4141 15.0781 15.8008 15.2344 16.1602C15.3906 16.5195 15.6055 16.8398 15.8789 17.1211C16.1523 17.4023 16.4688 17.6172 16.8281 17.7656C17.1875 17.9141 17.5781 17.9922 18 18ZM12 18.9375C11.75 19.2266 11.5234 19.5273 11.3203 19.8398C11.1172 20.1523 10.9375 20.4883 10.7812 20.8477C10.3672 20.418 9.86719 20.0859 9.28125 19.8516C8.69531 19.6172 8.10156 19.5 7.5 19.5H3V4.5H1.5V21H10.7227C10.6133 21.2422 10.5234 21.4883 10.4531 21.7383C10.3828 21.9883 10.3242 22.2422 10.2773 22.5H0V3H3V1.5H7.5C8.1875 1.5 8.84766 1.60547 9.48047 1.81641C10.1133 2.02734 10.7031 2.34375 11.25 2.76562C11.7891 2.34375 12.375 2.02734 13.0078 1.81641C13.6406 1.60547 14.3047 1.5 15 1.5H19.5V3H22.5V10.5C22.0469 10.0547 21.5469 9.68359 21 9.38672V4.5H19.5V8.82422C19.25 8.75391 19 8.70312 18.75 8.67188C18.5 8.64062 18.25 8.625 18 8.625V3H15C14.4531 3 13.9219 3.09375 13.4062 3.28125C12.8906 3.46875 12.4219 3.74609 12 4.11328V18.9375ZM10.5 18.7852V4.11328C10.0781 3.75391 9.60938 3.48047 9.09375 3.29297C8.57812 3.10547 8.04688 3.00781 7.5 3H4.5V18H7.5C8.02344 18 8.53906 18.0664 9.04688 18.1992C9.55469 18.332 10.0391 18.5273 10.5 18.7852Z" fill="black"/>
</svg>
