<svg width="100" height="100" viewBox="0 0 100 100" fill="none" xmlns="http://www.w3.org/2000/svg">
<rect x="2" y="2" width="96" height="96" rx="48" stroke="black" stroke-width="4"/>
<g clip-path="url(#clip0_48_1269)">
<path d="M50 50L32.096 42.848L33.2 69.2001H28.4L29.552 41.816L26 40.4L50 30.8L74 40.4L50 50ZM50 38C48.68 38 47.6 38.528 47.6 39.2C47.6 39.872 48.68 40.4 50 40.4C51.32 40.4 52.4 39.872 52.4 39.2C52.4 38.528 51.32 38 50 38ZM50 52.4L63.368 47.048C65.072 49.3041 66.248 52.016 66.632 54.9681C65.912 54.872 65.168 54.8 64.4 54.8C58.28 54.8 52.928 58.088 50 62.9841C48.5138 60.4899 46.4054 58.4243 43.8811 56.9897C41.3569 55.5551 38.5034 54.8006 35.6 54.8C34.832 54.8 34.088 54.872 33.368 54.9681C33.752 52.016 34.928 49.3041 36.632 47.048L50 52.4Z" fill="black"/>
</g>
<defs>
<clipPath id="clip0_48_1269">
<rect width="48" height="48" fill="white" transform="translate(26 26)"/>
</clipPath>
</defs>
</svg>
