<svg width="22" height="22" viewBox="0 0 22 22" fill="none" xmlns="http://www.w3.org/2000/svg">
<path d="M0.06875 4.88813C0.207375 4.28071 0.548151 3.73837 1.03527 3.34992C1.52238 2.96148 2.12697 2.74996 2.75 2.75H19.25C19.873 2.74996 20.4776 2.96148 20.9647 3.34992C21.4518 3.73837 21.7926 4.28071 21.9312 4.88813L11 11.5692L0.06875 4.88813ZM0 6.45838V16.2264L7.97912 11.3341L0 6.45838ZM9.29638 12.1412L0.262625 17.6784C0.485824 18.149 0.838099 18.5466 1.27845 18.8248C1.7188 19.1031 2.22912 19.2505 2.75 19.25H19.25C19.7708 19.2501 20.2809 19.1023 20.721 18.8239C21.1611 18.5454 21.5131 18.1477 21.736 17.677L12.7022 12.1399L11 13.1808L9.29638 12.1399V12.1412ZM14.0209 11.3355L22 16.2264V6.45838L14.0209 11.3341V11.3355Z" fill="#D4AF37"/>
</svg>
