<svg width="33" height="32" viewBox="0 0 33 32" fill="none" xmlns="http://www.w3.org/2000/svg">
<path d="M10.4125 2.5625L12.5687 6.88125L15.45 2.5625H10.4125ZM17.55 2.5625L20.4312 6.88125L22.5875 2.5625H17.55ZM16.5 3.01375L13.55 7.4375H19.45L16.5 3.01375ZM9.38124 3.0225L5.70124 7.4375H11.5875L9.38124 3.0225ZM23.6187 3.0225L21.4125 7.4375H27.3L23.6187 3.0225ZM5.55124 8.5625L12.8 19.4375H16.0625L12.1 8.5625H5.55124ZM13.3062 8.5625L16.5 17.3563L19.6937 8.5625H13.3062ZM20.9 8.5625L16.9375 19.4375H20.2L27.45 8.5625H20.9ZM13.0625 20.5625V23.4375H19.9375V20.5625H13.0625ZM8.82499 24.5625L5.46936 30.4375H27.5312L24.175 24.5625H11.9375H8.82499ZM10.5 27.4375H22.5V28.5625H10.5V27.4375Z" fill="#D4AF37"/>
</svg>
