<svg width="30" height="31" viewBox="0 0 30 31" fill="none" xmlns="http://www.w3.org/2000/svg">
<path d="M27.6562 10.0752H2.34375C1.97079 10.0752 1.6131 9.92704 1.34938 9.66331C1.08566 9.39959 0.9375 9.04191 0.9375 8.66895C0.9375 8.29598 1.08566 7.9383 1.34938 7.67458C1.6131 7.41085 1.97079 7.2627 2.34375 7.2627H27.6562C28.0292 7.2627 28.3869 7.41085 28.6506 7.67458C28.9143 7.9383 29.0625 8.29598 29.0625 8.66895C29.0625 9.04191 28.9143 9.39959 28.6506 9.66331C28.3869 9.92704 28.0292 10.0752 27.6562 10.0752ZM22.9688 16.6377H7.03125C6.65829 16.6377 6.3006 16.4895 6.03688 16.2258C5.77316 15.9621 5.625 15.6044 5.625 15.2314C5.625 14.8585 5.77316 14.5008 6.03688 14.2371C6.3006 13.9734 6.65829 13.8252 7.03125 13.8252H22.9688C23.3417 13.8252 23.6994 13.9734 23.9631 14.2371C24.2268 14.5008 24.375 14.8585 24.375 15.2314C24.375 15.6044 24.2268 15.9621 23.9631 16.2258C23.6994 16.4895 23.3417 16.6377 22.9688 16.6377ZM17.3438 23.2002H12.6562C12.2833 23.2002 11.9256 23.052 11.6619 22.7883C11.3982 22.5246 11.25 22.1669 11.25 21.7939C11.25 21.421 11.3982 21.0633 11.6619 20.7996C11.9256 20.5359 12.2833 20.3877 12.6562 20.3877H17.3438C17.7167 20.3877 18.0744 20.5359 18.3381 20.7996C18.6018 21.0633 18.75 21.421 18.75 21.7939C18.75 22.1669 18.6018 22.5246 18.3381 22.7883C18.0744 23.052 17.7167 23.2002 17.3438 23.2002Z" fill="white"/>
</svg>
