<svg width="48" height="48" viewBox="0 0 48 48" fill="none" xmlns="http://www.w3.org/2000/svg">
<g clip-path="url(#clip0_168_25730)">
<path d="M24 24L6.096 16.848L7.2 43.2001H2.4L3.552 15.816L0 14.4L24 4.80005L48 14.4L24 24ZM24 12C22.68 12 21.6 12.528 21.6 13.2C21.6 13.872 22.68 14.4 24 14.4C25.32 14.4 26.4 13.872 26.4 13.2C26.4 12.528 25.32 12 24 12ZM24 26.4L37.368 21.048C39.072 23.3041 40.248 26.016 40.632 28.9681C39.912 28.872 39.168 28.8 38.4 28.8C32.28 28.8 26.928 32.088 24 36.9841C22.5138 34.4899 20.4054 32.4243 17.8811 30.9897C15.3569 29.5551 12.5034 28.8006 9.6 28.8C8.832 28.8 8.088 28.872 7.368 28.9681C7.752 26.016 8.928 23.3041 10.632 21.048L24 26.4Z" fill="#D4AF37"/>
</g>
<defs>
<clipPath id="clip0_168_25730">
<rect width="48" height="48" fill="white"/>
</clipPath>
</defs>
</svg>
