<svg width="19" height="17" viewBox="0 0 19 17" fill="none" xmlns="http://www.w3.org/2000/svg">
<path d="M17.5189 1.38134L16.783 0.645393C16.575 0.437403 16.191 0.469412 15.951 0.757357L13.3908 3.30132C12.2388 2.80538 10.9749 2.56538 9.64682 2.56538C5.6947 2.58132 2.27092 4.88529 0.622802 8.19749C0.526774 8.40549 0.526774 8.66142 0.622802 8.8374C1.39073 10.4054 2.54281 11.7015 3.98281 12.6774L1.88682 14.8054C1.64682 15.0454 1.61481 15.4293 1.77485 15.6374L2.5108 16.3733C2.71879 16.5813 3.10277 16.5493 3.34277 16.2613L17.3907 2.21345C17.6947 1.97358 17.7267 1.58962 17.5187 1.38161L17.5189 1.38134ZM10.4948 6.21322C10.2228 6.1492 9.93485 6.06925 9.66283 6.06925C8.30278 6.06925 7.21489 7.15727 7.21489 8.51718C7.21489 8.78919 7.27891 9.07714 7.35887 9.34916L6.28675 10.4052C5.9668 9.84524 5.79081 9.22114 5.79081 8.51722C5.79081 6.38924 7.50283 4.67722 9.63081 4.67722C10.3349 4.67722 10.9588 4.8532 11.5188 5.17316L10.4948 6.21322Z" fill="black" fill-opacity="0.8"/>
<path d="M18.6714 8.19743C18.1114 7.07738 17.3753 6.06945 16.4634 5.25342L13.4874 8.19743V8.51738C13.4874 10.6454 11.7754 12.3574 9.64739 12.3574H9.32744L7.43945 14.2454C8.14351 14.3893 8.87946 14.4854 9.59946 14.4854C13.5516 14.4854 16.9754 12.1814 18.6235 8.85325C18.7675 8.62918 18.7675 8.40527 18.6714 8.19726L18.6714 8.19743Z" fill="black" fill-opacity="0.8"/>
</svg>
