<svg width="100" height="100" viewBox="0 0 100 100" fill="none" xmlns="http://www.w3.org/2000/svg">
<rect x="2" y="2" width="96" height="96" rx="48" stroke="black" stroke-width="4"/>
<path d="M69.6 61.6L62.4 54.4C62 54.2 61.6 54 61.2 54H55.6C54.8 54 54 54.8 54 55.6V61.2C54 61.6 54.2 62 54.4 62.4L61.6 69.6C61.8 69.8 62.2 70 62.8 70C63.2 70 63.6 69.8 64 69.6L69.6 64C69.8 63.8 70 63.4 70 62.8C70 62.4 69.8 62 69.6 61.6ZM56.8 58C56.2 58 55.6 57.4 55.6 56.8C55.6 56.2 56.2 55.6 56.8 55.6C57.4 55.6 58 56.2 58 56.8C58 57.4 57.4 58 56.8 58ZM46 34C41.6 34 38 37.6 38 42C38 46.4 41.6 50 46 50C50.4 50 54 46.4 54 42C54 37.6 50.4 34 46 34ZM46 54C37.2 54 30 57.6 30 62V66H52.4L51.6 65.2C50.6 64.2 50 62.8 50 61.2V55.6C50 55.2 50 54.8 50.2 54.2C48.8 54 47.4 54 46 54Z" fill="black"/>
</svg>
