<svg width="60" height="60" viewBox="0 0 60 60" fill="none" xmlns="http://www.w3.org/2000/svg">
<rect width="60" height="60" rx="30" fill="#D4AF37"/>
<path fill-rule="evenodd" clip-rule="evenodd" d="M30 42C33.1826 42 36.2348 40.7357 38.4853 38.4853C40.7357 36.2348 42 33.1826 42 30C42 26.8174 40.7357 23.7652 38.4853 21.5147C36.2348 19.2643 33.1826 18 30 18C26.8174 18 23.7652 19.2643 21.5147 21.5147C19.2643 23.7652 18 26.8174 18 30C18 33.1826 19.2643 36.2348 21.5147 38.4853C23.7652 40.7357 26.8174 42 30 42ZM29.3325 25.752C29.1066 25.6013 28.844 25.5147 28.5728 25.5015C28.3015 25.4884 28.0318 25.5491 27.7924 25.6772C27.5529 25.8053 27.3527 25.996 27.2132 26.229C27.0736 26.462 27 26.7284 27 27V33C27 33.2716 27.0736 33.538 27.2132 33.771C27.3527 34.004 27.5529 34.1947 27.7924 34.3228C28.0318 34.4509 28.3015 34.5116 28.5728 34.4985C28.844 34.4853 29.1066 34.3987 29.3325 34.248L33.8325 31.248C34.0379 31.111 34.2064 30.9254 34.3229 30.7077C34.4394 30.49 34.5003 30.2469 34.5003 30C34.5003 29.7531 34.4394 29.51 34.3229 29.2923C34.2064 29.0746 34.0379 28.889 33.8325 28.752L29.3325 25.752Z" fill="black"/>
</svg>
