<svg width="49" height="48" viewBox="0 0 49 48" fill="none" xmlns="http://www.w3.org/2000/svg">
<path d="M43.9064 1.8938L30.0877 7.08286L35.0471 10.2094C26.1877 21.3657 13.3721 28.2376 2.54395 30.8532L5.61145 36.4407C17.7783 32.4751 30.6596 25.3219 38.9565 12.6844L42.7346 15.0657L43.9064 1.8938ZM44.6283 12.8344L44.1783 17.9719L39.3689 14.9344C39.2002 15.1875 39.0221 15.4313 38.8439 15.6844V45.6469H46.1564V12.8344H44.6283ZM30.5096 24.8344C29.3189 25.8657 28.0908 26.8407 26.8439 27.7594V45.6469H34.1564V24.8344H30.5096ZM18.9127 32.7094C17.5627 33.4219 16.2127 34.0782 14.8439 34.6969V45.6469H22.1564V32.7094H18.9127ZM2.84395 36.8344V45.6469H10.1564V36.8344H9.62395C8.23457 37.3501 6.84613 37.8282 5.46613 38.2688L4.80426 38.4751L3.90426 36.8344H2.84395Z" fill="#D4AF37"/>
</svg>
