<svg width="37" height="36" viewBox="0 0 37 36" fill="none" xmlns="http://www.w3.org/2000/svg">
<path d="M32.9648 2.25H23.9648C22.1016 2.25 20.5898 3.76172 20.5898 5.625V14.625C20.5898 16.4883 22.1016 18 23.9648 18H29.5898V22.5C29.5898 24.982 27.5719 27 25.0898 27H24.5273C23.5922 27 22.8398 27.7523 22.8398 28.6875V32.0625C22.8398 32.9977 23.5922 33.75 24.5273 33.75H25.0898C31.3055 33.75 36.3398 28.7156 36.3398 22.5V5.625C36.3398 3.76172 34.8281 2.25 32.9648 2.25ZM12.7148 2.25H3.71484C1.85156 2.25 0.339844 3.76172 0.339844 5.625V14.625C0.339844 16.4883 1.85156 18 3.71484 18H9.33984V22.5C9.33984 24.982 7.32188 27 4.83984 27H4.27734C3.34219 27 2.58984 27.7523 2.58984 28.6875V32.0625C2.58984 32.9977 3.34219 33.75 4.27734 33.75H4.83984C11.0555 33.75 16.0898 28.7156 16.0898 22.5V5.625C16.0898 3.76172 14.5781 2.25 12.7148 2.25Z" fill="black"/>
</svg>
