<svg width="82" height="14" viewBox="0 0 82 14" fill="none" xmlns="http://www.w3.org/2000/svg">
<g clip-path="url(#clip0_48_1636)">
<path d="M7.04245 1.13721L8.57186 5.47054H13.1601L9.59147 8.27446L10.866 12.6078L7.04245 10.0588L3.21892 12.6078L4.49343 8.27446L0.924805 5.47054H5.51304L7.04245 1.13721Z" fill="#D4AF37"/>
</g>
<g clip-path="url(#clip1_48_1636)">
<path d="M24.0425 1.13721L25.5719 5.47054H30.1601L26.5915 8.27446L27.866 12.6078L24.0425 10.0588L20.2189 12.6078L21.4934 8.27446L17.9248 5.47054H22.513L24.0425 1.13721Z" fill="#D4AF37"/>
</g>
<g clip-path="url(#clip2_48_1636)">
<path d="M41.0425 1.13721L42.5719 5.47054H47.1601L43.5915 8.27446L44.866 12.6078L41.0425 10.0588L37.2189 12.6078L38.4934 8.27446L34.9248 5.47054H39.513L41.0425 1.13721Z" fill="#D4AF37"/>
</g>
<g clip-path="url(#clip3_48_1636)">
<path d="M58.0425 1.13721L59.5719 5.47054H64.1601L60.5915 8.27446L61.866 12.6078L58.0425 10.0588L54.2189 12.6078L55.4934 8.27446L51.9248 5.47054H56.513L58.0425 1.13721Z" fill="#D4AF37"/>
</g>
<g clip-path="url(#clip4_48_1636)">
<path d="M75.0425 1.13721L76.5719 5.47054H81.1601L77.5915 8.27446L78.866 12.6078L75.0425 10.0588L71.2189 12.6078L72.4934 8.27446L68.9248 5.47054H73.513L75.0425 1.13721Z" fill="#D4AF37"/>
</g>
<defs>
<clipPath id="clip0_48_1636">
<rect width="13" height="13" fill="white" transform="translate(0.669922 0.5)"/>
</clipPath>
<clipPath id="clip1_48_1636">
<rect width="13" height="13" fill="white" transform="translate(17.6699 0.5)"/>
</clipPath>
<clipPath id="clip2_48_1636">
<rect width="13" height="13" fill="white" transform="translate(34.6699 0.5)"/>
</clipPath>
<clipPath id="clip3_48_1636">
<rect width="13" height="13" fill="white" transform="translate(51.6699 0.5)"/>
</clipPath>
<clipPath id="clip4_48_1636">
<rect width="13" height="13" fill="white" transform="translate(68.6699 0.5)"/>
</clipPath>
</defs>
</svg>
