<svg width="48" height="49" viewBox="0 0 48 49" fill="none" xmlns="http://www.w3.org/2000/svg">
<path d="M20 18.4631C20 17.9327 20.2107 17.424 20.5858 17.0489C20.9609 16.6738 21.4696 16.4631 22 16.4631C22.5304 16.4631 23.0391 16.6738 23.4142 17.0489C23.7893 17.424 24 17.9327 24 18.4631V27.4031L26.42 27.6631L36.3 32.0431C37.36 32.5231 38 33.5831 38 34.7431V43.4631C37.94 45.1031 36.64 46.4031 35 46.4631H22C21.24 46.4631 20.52 46.1631 20 45.6031L10.2 37.2031L11.68 35.6631C12.06 35.2431 12.6 35.0231 13.16 35.0231H13.6L20 38.4631V18.4631ZM22 10.4631C24.1217 10.4631 26.1566 11.306 27.6569 12.8063C29.1571 14.3066 30 16.3414 30 18.4631C30 21.4631 28.4 24.0031 26 25.3831V22.9431C27.22 21.8431 28 20.2431 28 18.4631C28 16.8718 27.3679 15.3457 26.2426 14.2205C25.1174 13.0953 23.5913 12.4631 22 12.4631C20.4087 12.4631 18.8826 13.0953 17.7574 14.2205C16.6321 15.3457 16 16.8718 16 18.4631C16 20.2431 16.78 21.8431 18 22.9431V25.3831C15.6 24.0031 14 21.4631 14 18.4631C14 16.3414 14.8429 14.3066 16.3431 12.8063C17.8434 11.306 19.8783 10.4631 22 10.4631ZM22 6.46313C25.1826 6.46313 28.2348 7.72742 30.4853 9.97785C32.7357 12.2283 34 15.2805 34 18.4631C34 21.8631 32.58 24.9231 30.32 27.1231L28.32 26.2231C29.4693 25.2825 30.3955 24.0985 31.0318 22.7566C31.6682 21.4147 31.9989 19.9483 32 18.4631C32 15.811 30.9464 13.2674 29.0711 11.3921C27.1957 9.5167 24.6522 8.46313 22 8.46313C19.3478 8.46313 16.8043 9.5167 14.9289 11.3921C13.0536 13.2674 12 15.811 12 18.4631C12 22.5631 14.46 26.0831 18 27.6231V29.7831C13.34 28.1231 10 23.6831 10 18.4631C10 15.2805 11.2643 12.2283 13.5147 9.97785C15.7652 7.72742 18.8174 6.46313 22 6.46313Z" fill="#D4AF37"/>
</svg>
