<svg width="22" height="22" viewBox="0 0 22 22" fill="none" xmlns="http://www.w3.org/2000/svg">
<g clip-path="url(#clip0_1866_5298)">
<path fill-rule="evenodd" clip-rule="evenodd" d="M2.59203 0.702949C2.83262 0.462721 3.12152 0.276367 3.43958 0.156235C3.75764 0.0361038 4.0976 -0.0150613 4.43693 0.00613051C4.77625 0.0273223 5.1072 0.120387 5.40785 0.279158C5.70849 0.437928 5.97195 0.658779 6.18078 0.927074L8.64891 4.09782C9.10128 4.67945 9.26078 5.43707 9.08203 6.15207L8.32991 9.16332C8.29102 9.31929 8.29312 9.48266 8.33601 9.63757C8.37889 9.79249 8.4611 9.93368 8.57466 10.0474L11.953 13.4258C12.0669 13.5396 12.2084 13.622 12.3635 13.6648C12.5187 13.7077 12.6824 13.7097 12.8385 13.6706L15.8484 12.9184C16.2013 12.8302 16.5695 12.8234 16.9254 12.8984C17.2813 12.9734 17.6155 13.1284 17.9027 13.3516L21.0734 15.8183C22.2133 16.7052 22.3178 18.3896 21.2975 19.4084L19.8758 20.8302C18.8583 21.8477 17.3375 22.2946 15.9199 21.7954C12.2915 20.5188 8.99716 18.4416 6.28116 15.7179C3.55768 13.0023 1.4805 9.70846 0.203659 6.08057C-0.294091 4.66432 0.152784 3.1422 1.17028 2.1247L2.59203 0.702949Z" fill="#D4AF37"/>
</g>
<defs>
<clipPath id="clip0_1866_5298">
<rect width="22" height="22" fill="white"/>
</clipPath>
</defs>
</svg>
