<svg width="49" height="49" viewBox="0 0 49 49" fill="none" xmlns="http://www.w3.org/2000/svg">
<path d="M26.4999 6.46313C18.9599 6.46313 12.8799 12.3631 12.4999 19.7831L8.65992 24.8431C8.17992 25.4631 8.65992 26.4631 9.49992 26.4631H12.4999V32.4631C12.4999 34.6831 14.2799 36.4631 16.4999 36.4631H18.4999V42.4631H32.4999V33.0831C37.2399 30.8431 40.4999 26.0631 40.4999 20.4631C40.4999 12.7431 34.2599 6.46313 26.4999 6.46313ZM28.4999 28.4631H24.4999V24.4631H28.4999V28.4631ZM31.9999 18.0831C31.4199 18.8831 30.6799 19.4631 29.7799 19.9431C29.2799 20.2631 28.9399 20.6031 28.7599 20.9831C28.5799 21.3431 28.4999 21.8431 28.4999 22.4631H24.4999C24.4999 21.4631 24.7199 20.6231 25.1199 20.1031C25.4999 19.5631 26.1999 18.9631 27.2199 18.2831C27.7399 17.9631 28.1599 17.5631 28.4399 17.1031C28.7599 16.6431 28.8999 16.1031 28.8999 15.4631C28.8999 14.8631 28.7399 14.3431 28.3799 13.9631C28.0199 13.6031 27.4999 13.4031 26.8799 13.4031C26.3989 13.3927 25.9303 13.556 25.5599 13.8631C25.1999 14.1831 25.0199 14.6431 24.9999 15.2431H21.1399L21.1199 15.1831C21.0999 13.6031 21.6199 12.4631 22.6599 11.6431C23.7399 10.8631 25.1399 10.4631 26.8799 10.4631C28.7399 10.4631 30.1999 10.9231 31.2599 11.8231C32.3399 12.7231 32.8799 13.9431 32.8799 15.4631C32.8799 16.4631 32.5799 17.2831 31.9999 18.0831Z" fill="#D4AF37"/>
</svg>
