<svg width="100" height="100" viewBox="0 0 100 100" fill="none" xmlns="http://www.w3.org/2000/svg">
<rect x="2" y="2" width="96" height="96" rx="48" stroke="black" stroke-width="4"/>
<path d="M33.8018 61.7281L41.6238 53.9061L47.2818 59.5621L56.4238 50.4201L60.0098 54.0061V44.0061H50.0098L53.5958 47.5921L47.2818 53.9061L41.6238 48.2481L31.7338 58.1401C30.5936 55.5801 30.0062 52.8085 30.0098 50.0061C30.0098 38.9601 38.9638 30.0061 50.0098 30.0061C61.0558 30.0061 70.0098 38.9601 70.0098 50.0061C70.0098 61.0521 61.0558 70.0061 50.0098 70.0061C46.8454 70.0085 43.7258 69.259 40.9079 67.8195C38.09 66.3799 35.6544 64.2934 33.8018 61.7281Z" fill="black"/>
</svg>
