<svg width="100" height="100" viewBox="0 0 100 100" fill="none" xmlns="http://www.w3.org/2000/svg">
<rect x="2" y="2" width="96" height="96" rx="48" stroke="black" stroke-width="4"/>
<path d="M37.4112 29C37.349 28.9994 37.2876 29.0144 37.2326 29.0434C37.1776 29.0725 37.1307 29.1148 37.0961 29.1665C37.0615 29.2182 37.0403 29.2777 37.0344 29.3396C37.0285 29.4016 37.0382 29.464 37.0624 29.5213L37.2781 30.0303L41.0937 38.9272C41.1196 38.9877 41.161 39.0403 41.2137 39.0798C41.2665 39.1192 41.3286 39.1441 41.394 39.1519C41.4594 39.1597 41.5256 39.1501 41.5861 39.1242C41.6467 39.0982 41.6993 39.0568 41.7387 39.0041L48.7812 29.6C48.823 29.5443 48.8484 29.4781 48.8547 29.4087C48.8609 29.3393 48.8477 29.2696 48.8166 29.2073C48.7855 29.145 48.7376 29.0926 48.6783 29.056C48.6191 29.0194 48.5508 29 48.4812 29H37.4112ZM65.3684 31.4431L61.4984 40.4778C61.474 40.5349 61.4642 40.5971 61.4698 40.6588C61.4754 40.7206 61.4962 40.78 61.5304 40.8317C61.5646 40.8835 61.6111 40.9259 61.6657 40.9553C61.7203 40.9847 61.7814 41 61.8434 41H71.3121C71.379 41 71.4446 40.9822 71.5023 40.9483C71.5599 40.9145 71.6075 40.8658 71.64 40.8074C71.6725 40.7489 71.6888 40.6829 71.6872 40.616C71.6856 40.5492 71.6661 40.484 71.6309 40.4272L66.0312 31.3935C65.995 31.3353 65.9436 31.2882 65.8825 31.2571C65.8214 31.2261 65.753 31.2125 65.6847 31.2176C65.6164 31.2227 65.5508 31.2464 65.4951 31.2862C65.4393 31.326 65.3955 31.3802 65.3684 31.4431ZM33.9687 31.3972L28.3709 40.4272C28.3356 40.484 28.3162 40.5492 28.3146 40.616C28.313 40.6829 28.3293 40.7489 28.3618 40.8074C28.3943 40.8658 28.4418 40.9145 28.4995 40.9483C28.5571 40.9822 28.6228 41 28.6896 41H38.1584C38.2204 40.9999 38.2815 40.9845 38.3361 40.955C38.3907 40.9255 38.4371 40.8829 38.4712 40.8311C38.5053 40.7792 38.526 40.7197 38.5315 40.6579C38.5369 40.5961 38.527 40.5339 38.5024 40.4769L34.6249 31.4469C34.5972 31.3856 34.5535 31.3328 34.4983 31.2942C34.4432 31.2556 34.3787 31.2325 34.3116 31.2274C34.2444 31.2224 34.1772 31.2354 34.1168 31.2653C34.0565 31.2952 34.0053 31.3407 33.9687 31.3972ZM62.869 29H51.1081C51.0741 28.9998 51.0408 29.0091 51.0119 29.0268C50.9829 29.0445 50.9595 29.07 50.9443 29.1003C50.9291 29.1307 50.9227 29.1647 50.9258 29.1985C50.9289 29.2323 50.9413 29.2645 50.9618 29.2916L58.4543 39.2722C58.4734 39.2978 58.499 39.318 58.5284 39.3306C58.5578 39.3432 58.59 39.3478 58.6217 39.344C58.6535 39.3402 58.6837 39.3281 58.7093 39.3089C58.7348 39.2897 58.7549 39.2641 58.7674 39.2347L62.7124 30.0313L63.0312 29.2494C63.0424 29.2226 63.047 29.1934 63.0445 29.1644C63.042 29.1354 63.0325 29.1075 63.0168 29.083C63.0012 29.0584 62.9798 29.0381 62.9545 29.0236C62.9293 29.0092 62.9009 29.0011 62.8718 29H62.869ZM48.4062 68L40.0221 44.2353C39.9975 44.1663 39.9521 44.1066 39.8922 44.0645C39.8322 44.0224 39.7607 43.9998 39.6874 44H28.4093C28.344 43.9998 28.2799 44.018 28.2244 44.0525C28.1689 44.0869 28.1242 44.1363 28.0954 44.1949C28.0665 44.2535 28.0547 44.3191 28.0614 44.3841C28.068 44.4491 28.0927 44.5109 28.1328 44.5625L48.3828 70.7947C48.4513 70.8835 48.5491 70.9451 48.6588 70.9686C48.7684 70.9921 48.8829 70.976 48.9818 70.9231C49.0813 70.8708 49.1587 70.7844 49.1998 70.6798C49.2409 70.5752 49.2431 70.4592 49.2059 70.3531L48.4062 68ZM71.5906 44H60.3124C60.2396 44 60.1685 44.0226 60.109 44.0648C60.0496 44.1069 60.0047 44.1665 59.9806 44.2353L50.7743 70.3128C50.7357 70.4223 50.7373 70.542 50.7788 70.6504C50.8204 70.7588 50.8992 70.8488 51.0012 70.9044C51.1032 70.9596 51.2215 70.9768 51.335 70.953C51.4484 70.9291 51.5498 70.8657 51.6209 70.7741L71.8671 44.5625C71.9072 44.5109 71.9319 44.4491 71.9385 44.3841C71.9451 44.3191 71.9334 44.2535 71.9045 44.1949C71.8757 44.1363 71.831 44.0869 71.7755 44.0525C71.72 44.018 71.6559 43.9998 71.5906 44ZM50.2999 33.3997L55.5499 40.4C55.5917 40.4557 55.6172 40.522 55.6234 40.5913C55.6297 40.6607 55.6165 40.7304 55.5854 40.7927C55.5542 40.855 55.5063 40.9074 55.4471 40.944C55.3879 40.9806 55.3196 41 55.2499 41H44.7499C44.6803 41 44.612 40.9806 44.5528 40.944C44.4936 40.9074 44.4457 40.855 44.4145 40.7927C44.3834 40.7304 44.3702 40.6607 44.3765 40.5913C44.3827 40.522 44.4082 40.4557 44.4499 40.4L49.6999 33.3997C49.7349 33.3531 49.7802 33.3153 49.8322 33.2893C49.8843 33.2633 49.9417 33.2497 49.9999 33.2497C50.0582 33.2497 50.1156 33.2633 50.1676 33.2893C50.2197 33.3153 50.265 33.3531 50.2999 33.3997ZM49.6437 62.4913L43.2968 44.4997C43.2769 44.4432 43.2708 44.3827 43.2791 44.3233C43.2873 44.2639 43.3097 44.2074 43.3443 44.1585C43.3789 44.1095 43.4248 44.0696 43.478 44.042C43.5312 44.0145 43.5903 44.0001 43.6503 44H56.3496C56.4096 44.0001 56.4686 44.0145 56.5219 44.042C56.5751 44.0696 56.6209 44.1095 56.6556 44.1585C56.6902 44.2074 56.7126 44.2639 56.7208 44.3233C56.7291 44.3827 56.723 44.4432 56.7031 44.4997L50.3534 62.4913C50.3275 62.5643 50.2796 62.6275 50.2163 62.6722C50.153 62.7169 50.0774 62.7409 49.9999 62.7409C49.9225 62.7409 49.8469 62.7169 49.7836 62.6722C49.7203 62.6275 49.6724 62.5643 49.6465 62.4913H49.6437Z" fill="black"/>
</svg>
