<svg width="24" height="25" viewBox="0 0 24 25" fill="none" xmlns="http://www.w3.org/2000/svg">
<path d="M12.37 2.64984L21.37 6.24982C21.72 6.38982 22 6.80981 22 7.17981V10.4998C22 11.0498 21.55 11.4998 21 11.4998H3C2.45 11.4998 2 11.0498 2 10.4998V7.17981C2 6.80981 2.28 6.38982 2.63 6.24982L11.63 2.64984C11.83 2.56984 12.17 2.56984 12.37 2.64984Z" stroke="currentcolor" stroke-width="1.5" stroke-miterlimit="10" stroke-linecap="round" stroke-linejoin="round"/>
<path d="M22 22.5H2V19.5C2 18.95 2.45 18.5 3 18.5H21C21.55 18.5 22 18.95 22 19.5V22.5Z" stroke="currentcolor" stroke-width="1.5" stroke-miterlimit="10" stroke-linecap="round" stroke-linejoin="round"/>
<path d="M4 18.5V11.5" stroke="currentcolor" stroke-width="1.5" stroke-miterlimit="10" stroke-linecap="round" stroke-linejoin="round"/>
<path d="M8 18.5V11.5" stroke="currentcolor" stroke-width="1.5" stroke-miterlimit="10" stroke-linecap="round" stroke-linejoin="round"/>
<path d="M12 18.5V11.5" stroke="currentcolor" stroke-width="1.5" stroke-miterlimit="10" stroke-linecap="round" stroke-linejoin="round"/>
<path d="M16 18.5V11.5" stroke="currentcolor" stroke-width="1.5" stroke-miterlimit="10" stroke-linecap="round" stroke-linejoin="round"/>
<path d="M20 18.5V11.5" stroke="currentcolor" stroke-width="1.5" stroke-miterlimit="10" stroke-linecap="round" stroke-linejoin="round"/>
<path d="M1 22.5H23" stroke="currentcolor" stroke-width="1.5" stroke-miterlimit="10" stroke-linecap="round" stroke-linejoin="round"/>
<path d="M12 9C12.8284 9 13.5 8.32843 13.5 7.5C13.5 6.67157 12.8284 6 12 6C11.1716 6 10.5 6.67157 10.5 7.5C10.5 8.32843 11.1716 9 12 9Z" stroke="currentcolor" stroke-width="1.5" stroke-miterlimit="10" stroke-linecap="round" stroke-linejoin="round"/>
</svg>
