<svg width="12" height="12" viewBox="0 0 12 12" fill="none" xmlns="http://www.w3.org/2000/svg">
<path fill-rule="evenodd" clip-rule="evenodd" d="M8 1.75H9C9.69036 1.75 10.25 2.30964 10.25 3V9C10.25 9.69036 9.69036 10.25 9 10.25H3C2.30964 10.25 1.75 9.69036 1.75 9V3C1.75 2.30964 2.30964 1.75 3 1.75H4V5.69098C4 6.06267 4.39116 6.30442 4.72361 6.1382L5.77639 5.6118C5.91716 5.54142 6.08284 5.54142 6.22361 5.6118L7.27639 6.1382C7.60884 6.30442 8 6.06267 8 5.69098V1.75ZM7.25 1.75H4.75V5.28647L5.44098 4.94098C5.79289 4.76503 6.20711 4.76503 6.55902 4.94098L7.25 5.28647V1.75ZM8 1H9C10.1046 1 11 1.89543 11 3V9C11 10.1046 10.1046 11 9 11H3C1.89543 11 1 10.1046 1 9V3C1 1.89543 1.89543 1 3 1H4H4.75H7.25H8Z" fill="currentcolor"/>
</svg>
