<svg width="24" height="25" viewBox="0 0 24 25" fill="none" xmlns="http://www.w3.org/2000/svg">
<path d="M17 21.5H7C3 21.5 2 20.5 2 16.5V8.5C2 4.5 3 3.5 7 3.5H17C21 3.5 22 4.5 22 8.5V16.5C22 20.5 21 21.5 17 21.5Z" stroke="currentcolor" stroke-width="1.5" stroke-linecap="round" stroke-linejoin="round"/>
<path d="M14 8.5H19" stroke="currentcolor" stroke-width="1.5" stroke-linecap="round" stroke-linejoin="round"/>
<path d="M15 12.5H19" stroke="currentcolor" stroke-width="1.5" stroke-linecap="round" stroke-linejoin="round"/>
<path d="M17 16.5H19" stroke="currentcolor" stroke-width="1.5" stroke-linecap="round" stroke-linejoin="round"/>
<path d="M8.50141 11.7899C9.50104 11.7899 10.3114 10.9796 10.3114 9.97992C10.3114 8.98029 9.50104 8.16992 8.50141 8.16992C7.50177 8.16992 6.69141 8.98029 6.69141 9.97992C6.69141 10.9796 7.50177 11.7899 8.50141 11.7899Z" stroke="currentcolor" stroke-width="1.5" stroke-linecap="round" stroke-linejoin="round"/>
<path d="M12 16.8298C11.86 15.3798 10.71 14.2398 9.26 14.1098C8.76 14.0598 8.25 14.0598 7.74 14.1098C6.29 14.2498 5.14 15.3798 5 16.8298" stroke="currentcolor" stroke-width="1.5" stroke-linecap="round" stroke-linejoin="round"/>
</svg>
