<svg width="24" height="25" viewBox="0 0 24 25" fill="none" xmlns="http://www.w3.org/2000/svg">
<g clip-path="url(#clip0_554_3709)">
<path d="M15.5799 12.5C15.5799 14.48 13.9799 16.08 11.9999 16.08C10.0199 16.08 8.41992 14.48 8.41992 12.5C8.41992 10.52 10.0199 8.92 11.9999 8.92C13.9799 8.92 15.5799 10.52 15.5799 12.5Z" stroke="currentcolor" stroke-width="1.5" stroke-linecap="round" stroke-linejoin="round"/>
<path d="M11.9998 20.77C15.5298 20.77 18.8198 18.69 21.1098 15.09C22.0098 13.68 22.0098 11.31 21.1098 9.9C18.8198 6.3 15.5298 4.22 11.9998 4.22C8.46984 4.22 5.17984 6.3 2.88984 9.9C1.98984 11.31 1.98984 13.68 2.88984 15.09C5.17984 18.69 8.46984 20.77 11.9998 20.77Z" stroke="currentcolor" stroke-width="1.5" stroke-linecap="round" stroke-linejoin="round"/>
</g>
<defs>
<clipPath id="clip0_554_3709">
<rect width="24" height="24" fill="white" transform="translate(0 0.5)"/>
</clipPath>
</defs>
</svg>
