<svg width="24" height="25" viewBox="0 0 24 25" fill="none" xmlns="http://www.w3.org/2000/svg">
<path d="M12 22.5C17.5228 22.5 22 18.0228 22 12.5C22 6.97715 17.5228 2.5 12 2.5C6.47715 2.5 2 6.97715 2 12.5C2 18.0228 6.47715 22.5 12 22.5Z" stroke="currentcolor" stroke-width="1.5" stroke-miterlimit="10" stroke-linecap="round" stroke-linejoin="round"/>
<path d="M12.0016 15.3799C11.0916 15.3799 10.3516 14.6399 10.3516 13.7299V11.2599C10.3516 10.3499 11.0916 9.60986 12.0016 9.60986C12.9116 9.60986 13.6516 10.3499 13.6516 11.2599V13.7299C13.6516 14.6399 12.9116 15.3799 12.0016 15.3799Z" stroke="currentcolor" stroke-width="1.5" stroke-linecap="round"/>
<path d="M16.98 13.9702C16.78 16.5502 14.62 18.5702 12 18.5702C9.24 18.5702 7 16.3302 7 13.5702V11.4302C7 8.67018 9.24 6.43018 12 6.43018C14.59 6.43018 16.72 8.40017 16.97 10.9202" stroke="currentcolor" stroke-width="1.5" stroke-linecap="round"/>
</svg>
