<svg width="12" height="22" viewBox="0 0 12 22" fill="none" xmlns="http://www.w3.org/2000/svg">
<path d="M10 7.8999V15.8999" stroke="currentcolor" stroke-linecap="round"/>
<path d="M1.93884 0.599609H3.1M10.0604 0.599609H8.9M8.9 0.599609V4.2998M8.9 0.599609H3.1M8.9 4.2998H9C10.2703 4.2998 11.3 5.32955 11.3 6.5998V6.5998M8.9 4.2998H7.13221M0.699219 10.6998V16.9998M3.1 0.599609V4.2998M3.1 4.2998H2.99922C1.72896 4.2998 0.699219 5.32955 0.699219 6.5998V6.5998M3.1 4.2998H4.8486M0.699219 8.4998V6.5998M0.699219 16.9998V16.9998C0.699219 18.3253 1.77373 19.3998 3.09922 19.3998H3.22797M0.699219 16.9998H11.3M11.3 16.9998V16.9998C11.3 18.3253 10.2255 19.3998 8.9 19.3998H8.67917M11.3 16.9998V6.5998M11.3 6.5998H0.699219M3.22797 19.3998L2.52815 20.9998H9.48948L8.67917 19.3998M3.22797 19.3998H8.67917M4.8486 4.2998V2.6998M4.8486 4.2998H7.13221M4.8486 2.6998H4.55C4.30147 2.6998 4.1 2.49833 4.1 2.2498V2.2498C4.1 2.00128 4.30147 1.7998 4.55 1.7998H7.45C7.69853 1.7998 7.9 2.00128 7.9 2.2498V2.2498C7.9 2.49833 7.69853 2.6998 7.45 2.6998H7.13221M4.8486 2.6998H7.13221M7.13221 2.6998V4.2998" stroke="currentcolor" stroke-linecap="round"/>
</svg>
