<svg width="90" height="134" viewBox="0 0 90 134" fill="none" xmlns="http://www.w3.org/2000/svg">
<path d="M32.2365 99.3543C9.67594 97.4205 5.82633 121.288 6.72159 133.464C-9.60797 98.2263 7.61685 82.971 18.2705 79.7481V67.9307C17.4647 62.5591 30.8936 56.1133 57.7514 57.4561C79.2376 58.5305 83.1768 64.5287 82.4606 67.3935V78.6738C92.1294 84.0454 90.4284 94.6989 88.3693 99.3543C85.4149 109.292 62.0487 108.217 52.6484 104.189C44.9565 100.892 35.9966 99.2648 32.2365 99.3543Z" fill="#0066FF"/>
<path d="M18.2704 68.7364V90.2226H23.3734V84.3139C30.0342 87.1071 41.3681 87.4473 45.934 87.2683L47.2769 92.3712H56.9457V79.4795C66.1847 79.4795 72.7918 77.689 74.9404 76.7937V81.3595L82.4606 78.6738V67.3935C76.2296 72.1205 63.8392 74.6451 58.5571 74.6451C56.4085 74.6451 49.6941 74.9137 39.7567 74.6451C29.8766 74.3781 21.3143 70.706 18.2704 68.7364Z" fill="#0043A7"/>
<ellipse cx="49.4255" cy="66.0506" rx="27.1264" ry="6.98302" fill="#0043A7"/>
<path d="M43.9164 47.8773C45.0485 46.3678 48.0044 41.6666 49.3409 39.5046C50.3786 41.9575 53.3896 46.1084 54.7654 47.8773C59.4824 52.4999 59.8755 58.3725 59.4824 60.731C57.6899 67.4291 51.9746 68.7892 49.3409 68.6319C48.8692 68.7498 40.2607 67.9244 39.1994 60.731C38.1381 53.5376 42.5013 49.764 43.9164 47.8773Z" fill="url(#paint0_linear_180_1160)"/>
<path d="M41.9117 53.4197C41.3614 56.3285 41.2041 62.264 44.9777 62.7357C42.5799 62.9716 38.6098 61.4385 41.9117 53.4197Z" fill="#FCFFE4"/>
<path d="M47.8079 20.165C56.6758 9.69337 55.1192 2.35849 53.2324 0C60.2135 5.47169 57.9494 15.1729 55.9447 19.3396L52.9966 25.2358C48.3975 36.5565 56.1805 38.7971 56.8881 39.0329C57.4541 39.2216 57.5956 38.9543 57.5956 38.7971C52.3126 29.0801 59.4038 24.2138 63.6098 22.9952C60.5437 29.1273 63.0201 36.3207 64.1994 37.4999C65.1428 38.4433 66.0076 40.6446 66.322 41.6273C69.0579 53.231 64.3173 60.22 61.6051 62.264C62.4305 52.5942 57.5956 47.2876 55.3551 44.5754C53.5626 42.4056 50.5202 37.8537 49.223 35.849C48.9872 36.9889 47.2419 40.6839 42.1475 46.3442C37.0532 52.0046 36.4086 57.9794 36.723 60.2593C31.2514 54.5046 30.8268 43.8678 31.2985 39.2688C32.9966 46.7216 36.4086 48.3489 37.9023 48.231C32.3362 38.5141 38.4133 29.3238 42.1475 25.9433L47.8079 20.165Z" fill="#EE1B24"/>
<defs>
<linearGradient id="paint0_linear_180_1160" x1="49.3162" y1="39.5046" x2="49.3162" y2="68.6437" gradientUnits="userSpaceOnUse">
<stop stop-color="#F9DA10"/>
<stop offset="1" stop-color="#F69F24"/>
</linearGradient>
</defs>
</svg>
