<svg width="24" height="25" viewBox="0 0 24 25" fill="none" xmlns="http://www.w3.org/2000/svg">
<path d="M22 9.50002V15.5C22 18 21.5 19.75 20.38 20.88L14 14.5L21.73 6.77002C21.91 7.56002 22 8.46002 22 9.50002Z" stroke="currentcolor" stroke-width="1.5" stroke-linecap="round" stroke-linejoin="round"/>
<path d="M21.73 6.77L6.26999 22.23C3.25999 21.54 2 19.46 2 15.5V9.5C2 4.5 4 2.5 9 2.5H15C18.96 2.5 21.04 3.76 21.73 6.77Z" stroke="currentcolor" stroke-width="1.5" stroke-linecap="round" stroke-linejoin="round"/>
<path d="M20.3795 20.88C19.2495 22 17.4995 22.5 14.9995 22.5H8.99954C7.95954 22.5 7.05953 22.41 6.26953 22.23L13.9995 14.5L20.3795 20.88Z" stroke="currentcolor" stroke-width="1.5" stroke-linecap="round" stroke-linejoin="round"/>
<path d="M6.24124 8.48021C6.92124 5.55021 11.3212 5.55021 12.0012 8.48021C12.3912 10.2002 11.3112 11.6602 10.3612 12.5602C9.67123 13.2202 8.58125 13.2202 7.88125 12.5602C6.93125 11.6602 5.84124 10.2002 6.24124 8.48021Z" stroke="currentcolor" stroke-width="1.5"/>
<path d="M9.09607 9.2002H9.10505" stroke="currentcolor" stroke-width="2" stroke-linecap="round" stroke-linejoin="round"/>
</svg>
