<svg width="563" height="369" viewBox="0 0 563 369" fill="none" xmlns="http://www.w3.org/2000/svg">
<path d="M350.147 3.72843L350.074 3.71387H350H347L344 3.71385H339.617C340.622 3.30173 341.909 2.94921 343.5 2.69005C346.542 2.19455 350.577 2.05838 355.583 2.42438C365.592 3.15617 379.404 5.88923 396.763 11.6754C431.408 23.2236 468.003 51.0289 481.985 63.5091C484.958 66.4842 489.272 71.4222 492.284 76.7694C494.664 80.9945 496.146 85.324 495.685 89.1117L494.728 85.282L494.708 85.2021L494.671 85.1285L493.671 83.1285L492.671 81.1285L492.616 81.0196L492.53 80.9335L491.583 79.986L489.624 77.0478L489.583 76.9861L489.53 76.9335L487.53 74.9335L485.53 72.9335L483.53 70.9335L481.53 68.9335L480.53 67.9335L479.53 66.9335L479.493 66.8959L479.45 66.8639L475.493 63.8959L473.53 61.9335L473.478 61.881L473.416 61.8398L470.478 59.881L469.53 58.9335L468.53 57.9335L468.478 57.881L468.416 57.8398L465.478 55.881L464.53 54.9335L464.478 54.881L464.416 54.8398L461.478 52.881L460.53 51.9335L460.444 51.8475L460.335 51.793L458.377 50.8139L455.416 48.8398L452.416 46.8398L449.416 44.8398L449.377 44.8139L449.335 44.793L447.377 43.8139L444.416 41.8398L444.377 41.8139L444.335 41.793L442.377 40.8139L439.416 38.8398L439.377 38.8139L439.335 38.793L437.335 37.793L435.361 36.8059L430.386 33.8207L430.361 33.8059L430.335 33.793L426.335 31.793L424.335 30.793L422.335 29.793L420.335 28.793L418.335 27.793L416.335 26.793L414.335 25.793L414.288 25.7692L414.237 25.7524L411.288 24.7692L409.335 23.793L407.335 22.793L405.335 21.793L405.288 21.7692L405.237 21.7524L402.288 20.7692L400.335 19.793L400.288 19.7692L400.237 19.7524L397.288 18.7692L395.335 17.793L395.288 17.7692L395.237 17.7524L392.288 16.7692L390.335 15.793L390.288 15.7692L390.237 15.7524L387.288 14.7692L385.335 13.793L385.288 13.7692L385.237 13.7524L382.237 12.7524L379.237 11.7524L376.237 10.7524L373.237 9.75235L370.237 8.75235L367.237 7.75235L367.21 7.74325L367.182 7.73626L363.182 6.73626L359.182 5.73626L355.182 4.73626L355.165 4.73193L355.147 4.72843L350.147 3.72843Z" fill="#EAEDF5" stroke="white" stroke-width="1.5" stroke-linecap="round"/>
<path d="M359 6.46328C336.6 0.863278 328 6.79661 326.5 10.4633C323.3 22.0633 342.5 38.9633 352.5 45.9633C363.667 53.6299 388.7 70.2633 399.5 75.4633C410.3 80.6633 433 89.9633 443 93.9633C459.333 99.1299 492.6 106.763 495 95.9633C497.997 82.4757 483.527 70.9845 466.547 57.5007L466.5 57.4633C452.9 46.6633 429.833 34.2966 420 29.4633C409 24.1299 381.4 12.0633 359 6.46328Z" fill="white" stroke="#0C0E18" stroke-linecap="round"/>
<path d="M368.501 23.4634C351.692 19.2609 346.393 21.4391 345.267 24.1907C342.866 32.8959 356.996 43.2103 364.5 48.4634C372.879 54.2168 392.896 66.5611 401 70.4634C409.104 74.3657 423.996 80.9616 431.5 83.9634C443.756 87.8407 473 97.2659 473 88.9634C473 79.4634 461.5 70.4634 448.5 61.4634C437.785 54.0455 421.379 45.0905 414 41.4634C405.746 37.461 385.309 27.6659 368.501 23.4634Z" fill="#D4D9E2"/>
<path d="M439.499 64.963C418.699 50.963 394.165 40.7964 384.499 37.463C378.665 35.1297 366.399 31.163 363.999 33.963C361.599 36.763 370.665 44.7964 375.499 48.463C389.099 58.463 409.165 68.2964 417.499 71.963C428.332 76.1297 450.599 83.663 452.999 80.463C455.399 77.263 444.999 68.7964 439.499 64.963Z" fill="#535761" stroke="white"/>
<path d="M409.498 52.9637C389.498 42.1637 378.248 40.9637 376.998 43.4637C374.498 47.4636 393.164 58.1303 402.498 62.9637C421.698 73.7637 435.998 77.9636 438.498 76.4637C444.098 71.2637 421.498 58.6303 409.498 52.9637Z" fill="#CADFFF"/>
<path d="M482.002 82.9629C484.169 83.4629 488.202 86.2629 487.002 93.4629C484.336 92.1296 479.602 88.1629 482.002 82.9629Z" fill="#D4D9E2"/>
<path d="M454.5 57.4629C458 57.4629 465.6 59.4629 468 67.4629C464.667 66.9629 457.3 64.2629 454.5 57.4629Z" fill="#D4D9E2"/>
<path d="M410.5 31.9638C414.5 31.6305 423.7 32.9638 428.5 40.9638C424.667 41.1305 415.7 39.5638 410.5 31.9638Z" fill="#D4D9E2"/>
<path d="M365.5 14.464C367.5 13.4641 377.5 14.4641 381 19.964C377.5 20.9641 366 18.9641 365.5 14.464Z" fill="#D4D9E2"/>
<path d="M338.5 11.9637C334.5 13.9637 334.167 16.1303 334.5 16.9637C335.7 17.7637 339 16.9637 340.5 16.4636C341.833 15.797 344.5 13.9637 344.5 11.9637C344.5 9.96368 340.5 11.1303 338.5 11.9637Z" fill="#D4D9E2"/>
<path d="M337 4.46385C341.5 -0.0361178 362.2 -0.636112 397 10.9639C431.8 22.5639 468.5 50.4639 482.5 62.9639C488.5 68.9639 500 82.9639 495.5 92.4639" stroke="#0C0E18" stroke-linecap="round"/>
<path d="M434 8.46381C448 15.6638 450.5 31.4638 449.5 37.9638L447.5 36.4639L443.5 33.9639L438 30.4639L432 26.9639L423.5 22.4639L415.5 18.4639L407.5 14.9639L402 12.4638C412.8 3.26381 427.833 5.96381 434 8.46381Z" fill="#0066FF"/>
<circle cx="443.5" cy="18.9648" r="4.5" fill="white"/>
<path d="M396.5 10.9643C403.5 4.29762 422.1 -5.73571 440.5 7.46429C445.667 10.6309 455.5 21.5642 453.5 39.9642" stroke="#0C0E18" stroke-linecap="round"/>
<path d="M369 267.965C372.5 268.465 379.9 267.065 381.5 257.465C381.833 260.965 384.4 267.965 392 267.965C399.6 267.965 402.167 260.965 402.5 257.465C403 260.965 406 267.965 414 267.965" stroke="black"/>
<path d="M241 275.965C244.5 276.465 251.9 275.065 253.5 265.465C253.833 268.965 256.4 275.965 264 275.965C271.6 275.965 274.167 268.965 274.5 265.465C275 268.965 278 275.965 286 275.965" stroke="black"/>
<path opacity="0.6" d="M377 43.4637L183.5 310.964C191 320.964 202 311.964 201.5 305.464H202.5C202.5 308.464 206.6 315.464 213 315.464C219.4 315.464 222 309.797 222.5 307.464H224C224.667 309.797 227.6 314.464 234 314.464C240.4 314.464 243.667 309.797 244.5 307.464H246C246.667 309.797 249.5 314.464 255.5 314.464C261.5 314.464 264.667 309.797 265.5 307.464H267C267.667 309.797 270.6 314.464 277 314.464C283.4 314.464 286 309.797 286.5 307.464H288C290 313.064 295.5 314.464 298 314.464C304.4 315.264 307 310.13 307.5 307.464H309.5C312.7 313.864 317.167 314.797 319 314.464C327 314.464 329.833 307.797 330 304.464H331C331.167 307.464 333.3 313.664 340.5 314.464C347.7 315.264 350.5 308.13 351 304.464H352C355.16 317.104 362.689 315.805 368.177 312.155C370.905 310.341 372.474 307.317 373.379 304.168L439 75.9636C440 73.9636 438.5 72.1303 438 71.4636C436.4 69.0636 431 65.1303 428.5 63.4636C423.7 59.8636 407.833 51.9636 400.5 48.4636C398.833 47.6303 393.8 45.4637 387 43.4637C380.2 41.4637 377.5 42.6303 377 43.4637Z" fill="#0066FF"/>
<path d="M372 148.964L323.5 163.964C324.7 173.564 336.667 177.631 342.5 178.464H357V184.464C357 185.293 357.672 185.964 358.5 185.964C359.328 185.964 359.998 185.291 360.118 184.471C360.586 181.269 362.558 176.185 368 173.464C374.4 170.264 378 164.131 379 161.464V152.964C379 147.764 374.333 148.131 372 148.964Z" fill="white"/>
<circle cx="366.5" cy="163.965" r="2.5" fill="#4D94FF"/>
<path d="M322 367.965C325.5 368.465 332.9 367.065 334.5 357.465C334.833 360.965 337.4 367.965 345 367.965C352.6 367.965 355.167 360.965 355.5 357.465C356 360.965 359 367.965 367 367.965" stroke="#25282F"/>
<path d="M242 344.965C245.5 345.465 252.9 344.065 254.5 334.465C254.833 337.965 257.4 344.965 265 344.965C272.6 344.965 275.167 337.965 275.5 334.465C276 337.965 279 344.965 287 344.965" stroke="#25282F"/>
<path d="M74 340.374C76.8778 340.893 82.9622 339.439 84.2778 329.465C84.5519 333.101 86.6622 340.374 92.9111 340.374C99.16 340.374 101.27 333.101 101.544 329.465C101.956 333.101 104.422 340.374 111 340.374" stroke="#25282F"/>
<path d="M122 278.382C124.722 278.854 130.478 277.532 131.722 268.465C131.981 271.771 133.978 278.382 139.889 278.382C145.8 278.382 147.796 271.771 148.056 268.465C148.444 271.771 150.778 278.382 157 278.382" stroke="#25282F"/>
<path d="M1 288.399C3.72222 288.776 9.47778 287.719 10.7222 280.465C10.9815 283.109 12.9778 288.399 18.8889 288.399C24.8 288.399 26.7963 283.109 27.0556 280.465C27.4444 283.109 29.7778 288.399 36 288.399" stroke="#25282F"/>
<path d="M532 282.399C534.411 282.776 539.509 281.719 540.611 274.465C540.841 277.109 542.609 282.399 547.844 282.399C553.08 282.399 554.848 277.109 555.078 274.465C555.422 277.109 557.489 282.399 563 282.399" stroke="#25282F"/>
<path d="M453 325.965C456.5 326.465 463.9 325.065 465.5 315.465C465.833 318.965 468.4 325.965 476 325.965C483.6 325.965 486.167 318.965 486.5 315.465C487 318.965 490 325.965 498 325.965" stroke="#25282F"/>
<path d="M318 314.965C321.5 315.465 328.9 314.065 330.5 304.465C330.833 307.965 333.4 314.965 341 314.965C348.6 314.965 351.167 307.965 351.5 304.465C352 307.965 355 314.965 363 314.965" stroke="black"/>
<path d="M168.5 315.465C172 315.965 179.4 314.565 181 304.965C181.333 308.465 183.9 315.465 191.5 315.465C199.1 315.465 201.667 308.465 202 304.965C202.5 308.465 205.5 315.465 213.5 315.465" stroke="black"/>
</svg>
