<svg width="14" height="14" viewBox="0 0 14 14" fill="none" xmlns="http://www.w3.org/2000/svg">
<path d="M12.3755 10.3037C12.3755 10.5036 12.3311 10.709 12.2367 10.9089C12.1424 11.1088 12.0202 11.2976 11.8592 11.4753C11.5871 11.7751 11.2873 11.9916 10.9486 12.1304C10.6155 12.2692 10.2546 12.3414 9.86591 12.3414C9.29957 12.3414 8.69437 12.2082 8.05586 11.9361C7.41734 11.664 6.77883 11.2976 6.14586 10.8368C5.50735 10.3704 4.90215 9.85399 4.32471 9.28211C3.75282 8.70467 3.23646 8.09946 2.77561 7.4665C2.32033 6.83354 1.95387 6.20058 1.68736 5.57317C1.42085 4.9402 1.2876 4.335 1.2876 3.75756C1.2876 3.38001 1.35423 3.01911 1.48748 2.68597C1.62074 2.34728 1.83172 2.03635 2.126 1.75873C2.48134 1.40894 2.87 1.23682 3.28087 1.23682C3.43634 1.23682 3.5918 1.27013 3.73061 1.33676C3.87497 1.40339 4.00267 1.50333 4.10262 1.64769L5.39075 3.46329C5.49069 3.6021 5.56287 3.7298 5.61284 3.85195C5.66281 3.96855 5.69057 4.08515 5.69057 4.19064C5.69057 4.3239 5.65171 4.45715 5.57398 4.58486C5.5018 4.71256 5.3963 4.84581 5.26305 4.97907L4.84107 5.4177C4.78 5.47878 4.75224 5.55096 4.75224 5.63979C4.75224 5.68421 4.75779 5.72308 4.76889 5.7675C4.78555 5.81192 4.80221 5.84523 4.81331 5.87854C4.91325 6.06177 5.08537 6.30052 5.32967 6.58924C5.57953 6.87796 5.84604 7.17223 6.13476 7.4665C6.43458 7.76077 6.7233 8.03284 7.01757 8.28269C7.30629 8.52699 7.54504 8.69356 7.73382 8.7935C7.76158 8.80461 7.7949 8.82126 7.83376 8.83792C7.87818 8.85458 7.9226 8.86013 7.97257 8.86013C8.06696 8.86013 8.13914 8.82682 8.20022 8.76574L8.62219 8.34932C8.761 8.21051 8.89425 8.10502 9.02196 8.03839C9.14966 7.96066 9.27736 7.92179 9.41617 7.92179C9.52166 7.92179 9.63271 7.944 9.75486 7.99397C9.87701 8.04394 10.0047 8.11612 10.1435 8.21051L11.9813 9.5153C12.1257 9.61524 12.2256 9.73184 12.2867 9.87065C12.3422 10.0095 12.3755 10.1483 12.3755 10.3037Z" stroke="currentcolor"  stroke-width="0.999415" stroke-miterlimit="10"/>
</svg>
