<svg width="130" height="130" viewBox="0 0 130 130" fill="none" xmlns="http://www.w3.org/2000/svg">
<circle opacity="0.1" cx="65" cy="65" r="65" fill="currentcolor"/>
<circle cx="65" cy="65" r="45" fill="currentcolor"/>
<path d="M64.9993 51.667C57.6527 51.667 51.666 57.6537 51.666 65.0003C51.666 72.347 57.6527 78.3337 64.9993 78.3337C72.346 78.3337 78.3327 72.347 78.3327 65.0003C78.3327 57.6537 72.346 51.667 64.9993 51.667ZM71.3727 61.9337L63.8127 69.4937C63.626 69.6803 63.3727 69.787 63.106 69.787C62.8393 69.787 62.586 69.6803 62.3993 69.4937L58.626 65.7203C58.2393 65.3337 58.2393 64.6937 58.626 64.307C59.0127 63.9203 59.6527 63.9203 60.0393 64.307L63.106 67.3737L69.9594 60.5203C70.346 60.1337 70.986 60.1337 71.3727 60.5203C71.7593 60.907 71.7593 61.5337 71.3727 61.9337Z" fill="white"/>
</svg>
