<svg width="242" height="241" viewBox="0 0 242 241" fill="none" xmlns="http://www.w3.org/2000/svg">
<rect width="241.834" height="241" rx="20" fill="#FBFCFD"/>
<path d="M75.7392 178.649C56.6149 185.337 16.7823 193.679 10.4466 173.545C8.21738 168.207 13.2273 152.638 51.1005 133.067" stroke="#BEBEBE" stroke-dasharray="12 12"/>
<path d="M166.727 92.5894C183.622 86.2537 220.157 77.7358 231.139 94.3493C234.248 101.506 230.646 120.22 191.365 137.819" stroke="#BEBEBE" stroke-dasharray="12 12"/>
<path d="M188.373 145.035C186.824 131.519 172.006 126.38 164.79 125.5C165.201 115.41 158.806 94.3494 129.944 90.8296C101.081 87.3097 88.7035 106.61 86.1226 116.524C60.7799 118.777 55.1478 136.47 55.4996 145.035C55.3588 160.663 74.0959 167.503 83.4821 168.97H167.958C175.408 166.623 189.921 158.551 188.373 145.035Z" fill="#FEFAEB"/>
<path d="M105.13 139.58L111.29 154.363C112.17 153.072 114.458 149.717 116.57 146.619C118.682 143.522 117.215 141.574 116.218 140.988C114.927 140.166 111.501 138.277 108.122 137.292C104.743 136.306 104.72 138.406 105.13 139.58Z" fill="#F4B64D"/>
<path d="M154.408 91.5337L139.801 146.795L139.624 146.795C133.171 144.331 119.28 138.91 115.337 136.939C111.395 134.968 112.756 132.364 113.929 131.308L142.264 100.685L105.306 129.9C102.49 131.448 99.2049 130.897 97.9143 130.428L89.1153 126.732C86.4402 124.761 87.766 123.447 88.7633 123.036C108.768 112.301 149.41 90.5834 151.944 89.5978C154.478 88.6123 154.643 90.4778 154.408 91.5337Z" fill="#F4B64D"/>
<circle cx="131.527" cy="180.937" r="3.16784" fill="#C4C2FF"/>
<rect x="85.418" y="184.457" width="6.33567" height="6.33567" fill="#FFA3D1"/>
<circle cx="143.144" cy="64.7831" r="3.16784" fill="#8CEBDB"/>
<rect x="172.711" y="50" width="6.33567" height="5.98369" fill="#FBE692"/>
<path d="M216.368 172.082L217.64 168.97L218.806 172.082L221.987 173.369L218.806 174.55L217.64 177.769L216.368 174.55L213.188 173.369L216.368 172.082Z" fill="#C0F5A2"/>
<path d="M207.99 178.147L209.008 175.657L209.941 178.147L212.485 179.177L209.941 180.121L209.008 182.697L207.99 180.121L205.445 179.177L207.99 178.147Z" fill="#FBE692"/>
<path d="M203.686 164.042L205.798 158.938L207.734 164.042L213.013 166.154L207.734 168.09L205.798 173.37L203.686 168.09L198.406 166.154L203.686 164.042Z" fill="#8CEBDB"/>
<path d="M76.8473 80.0522L78.6284 75.6953L80.2611 80.0522L84.7139 81.855L80.2611 83.5076L78.6284 88.0147L76.8473 83.5076L72.3945 81.855L76.8473 80.0522Z" fill="#FFCEA3"/>
<path d="M64.7922 88.7873L66.1153 85.5508L67.3281 88.7873L70.6359 90.1265L67.3281 91.3542L66.1153 94.7023L64.7922 91.3542L61.4844 90.1265L64.7922 88.7873Z" fill="#C4C2FF"/>
<path d="M58.7233 68.0892L61.4204 61.6162L63.8927 68.0892L70.6355 70.7677L63.8927 73.223L61.4204 79.9193L58.7233 73.223L51.9805 70.7677L58.7233 68.0892Z" fill="#8CEBDB"/>
</svg>
