<svg width="20" height="21" viewBox="0 0 20 21" fill="none" xmlns="http://www.w3.org/2000/svg">
<path d="M12.5013 2.16602V10.4993C12.5013 11.416 11.7513 12.166 10.8346 12.166H1.66797V6.84934C2.2763 7.57434 3.20966 8.02435 4.24299 7.99935C5.08466 7.98268 5.84297 7.65768 6.40964 7.11602C6.66797 6.89935 6.88465 6.62434 7.05132 6.32434C7.35132 5.81601 7.51797 5.21599 7.5013 4.59099C7.4763 3.61599 7.04298 2.75768 6.36798 2.16602H12.5013Z" stroke="currentcolor" stroke-width="1.5" stroke-linecap="round" stroke-linejoin="round"/>
<path d="M18.3346 12.166V14.666C18.3346 16.0493 17.218 17.166 15.8346 17.166H15.0013C15.0013 16.2493 14.2513 15.4993 13.3346 15.4993C12.418 15.4993 11.668 16.2493 11.668 17.166H8.33464C8.33464 16.2493 7.58464 15.4993 6.66797 15.4993C5.7513 15.4993 5.0013 16.2493 5.0013 17.166H4.16797C2.78464 17.166 1.66797 16.0493 1.66797 14.666V12.166H10.8346C11.7513 12.166 12.5013 11.416 12.5013 10.4993V4.66602H14.0347C14.6347 4.66602 15.1847 4.99102 15.4847 5.50769L16.9096 7.99935H15.8346C15.3763 7.99935 15.0013 8.37435 15.0013 8.83268V11.3327C15.0013 11.791 15.3763 12.166 15.8346 12.166H18.3346Z" stroke="currentcolor" stroke-width="1.5" stroke-linecap="round" stroke-linejoin="round"/>
<path d="M6.66667 18.8333C7.58714 18.8333 8.33333 18.0871 8.33333 17.1667C8.33333 16.2462 7.58714 15.5 6.66667 15.5C5.74619 15.5 5 16.2462 5 17.1667C5 18.0871 5.74619 18.8333 6.66667 18.8333Z" stroke="currentcolor" stroke-width="1.5" stroke-linecap="round" stroke-linejoin="round"/>
<path d="M13.3346 18.8333C14.2551 18.8333 15.0013 18.0871 15.0013 17.1667C15.0013 16.2462 14.2551 15.5 13.3346 15.5C12.4142 15.5 11.668 16.2462 11.668 17.1667C11.668 18.0871 12.4142 18.8333 13.3346 18.8333Z" stroke="currentcolor" stroke-width="1.5" stroke-linecap="round" stroke-linejoin="round"/>
<path d="M18.3333 10.5V12.1667H15.8333C15.375 12.1667 15 11.7917 15 11.3333V8.83333C15 8.375 15.375 8 15.8333 8H16.9083L18.3333 10.5Z" stroke="currentcolor" stroke-width="1.5" stroke-linecap="round" stroke-linejoin="round"/>
<path d="M7.4987 4.66732C7.4987 5.66732 7.05704 6.55898 6.36538 7.16732C5.77371 7.68398 5.00703 8.00065 4.16536 8.00065C2.3237 8.00065 0.832031 6.50898 0.832031 4.66732C0.832031 3.61732 1.31536 2.67566 2.08203 2.06732C2.65703 1.60899 3.38203 1.33398 4.16536 1.33398C6.00703 1.33398 7.4987 2.82565 7.4987 4.66732Z" stroke="currentcolor" stroke-width="1.5" stroke-miterlimit="10" stroke-linecap="round" stroke-linejoin="round"/>
<path d="M4.3737 3.625V4.875L3.33203 5.5" stroke="currentcolor" stroke-width="1.5" stroke-miterlimit="10" stroke-linecap="round" stroke-linejoin="round"/>
</svg>
