<svg width="22" height="22" viewBox="0 0 22 22" fill="none" xmlns="http://www.w3.org/2000/svg">
<path d="M8.39635 9.96433C8.30469 9.95516 8.19469 9.95516 8.09385 9.96433C5.91219 9.891 4.17969 8.1035 4.17969 5.9035C4.17969 3.65766 5.99469 1.8335 8.24969 1.8335C10.4955 1.8335 12.3197 3.65766 12.3197 5.9035C12.3105 8.1035 10.578 9.891 8.39635 9.96433Z" stroke="currentcolor" stroke-width="1.5" stroke-linecap="round" stroke-linejoin="round"/>
<path d="M15.041 3.6665C16.8194 3.6665 18.2494 5.10567 18.2494 6.87484C18.2494 8.60734 16.8744 10.019 15.1602 10.0832C15.0869 10.074 15.0044 10.074 14.9219 10.0832" stroke="currentcolor" stroke-width="1.5" stroke-linecap="round" stroke-linejoin="round"/>
<path d="M3.81219 13.3465C1.59385 14.8315 1.59385 17.2515 3.81219 18.7273C6.33302 20.414 10.4672 20.414 12.988 18.7273C15.2064 17.2423 15.2064 14.8223 12.988 13.3465C10.4764 11.669 6.34219 11.669 3.81219 13.3465Z" stroke="currentcolor" stroke-width="1.5" stroke-linecap="round" stroke-linejoin="round"/>
<path d="M16.8125 18.3335C17.4725 18.196 18.0958 17.9302 18.6092 17.536C20.0392 16.4635 20.0392 14.6943 18.6092 13.6218C18.105 13.2368 17.4908 12.9802 16.84 12.8335" stroke="currentcolor" stroke-width="1.5" stroke-linecap="round" stroke-linejoin="round"/>
</svg>
